<?xml version="1.0" encoding="UTF-8" standalone="yes"?>
<!-- Created with sK1/UniConvertor (http://sk1project.org/) -->
<svg xmlns="http://www.w3.org/2000/svg" xmlns:xlink="http://www.w3.org/1999/xlink"
  width="595.276pt" height="841.89pt" viewBox="0 0 595.276 841.89"
  fill-rule="evenodd">
<g>
<path style="stroke:none; fill:#a9d18e" d="M 399.264 731.353L 417.025 722.471L 417.025 698.467L 399.264 689.586L 381.623 698.467L 381.623 722.471L 399.264 731.353z"/>
<path style="stroke:#ff0000; stroke-width:0.960058; fill:none" d="M 399.264 731.353L 417.025 722.471L 417.025 698.467L 399.264 689.586L 381.623 698.467L 381.623 722.471L 399.264 731.353z"/>
<path style="stroke:none; fill:#a9d18e" d="M 249.615 799.763L 267.256 790.882L 267.256 766.758L 249.615 757.997L 231.974 766.758L 231.974 790.882L 249.615 799.763z"/>
<path style="stroke:#ff0000; stroke-width:0.960058; fill:none" d="M 249.615 799.763L 267.256 790.882L 267.256 766.758L 249.615 757.997L 231.974 766.758L 231.974 790.882L 249.615 799.763z"/>
<path style="stroke:none; fill:#a9d18e" d="M 212.533 799.763L 230.294 790.882L 230.294 766.878L 212.533 757.997L 194.772 766.878L 194.772 790.882L 212.533 799.763z"/>
<path style="stroke:#ff0000; stroke-width:0.960058; fill:none" d="M 212.533 799.763L 230.294 790.882L 230.294 766.878L 212.533 757.997L 194.772 766.878L 194.772 790.882L 212.533 799.763z"/>
<path style="stroke:none; fill:#a9d18e" d="M 399.264 799.763L 417.025 790.882L 417.025 766.878L 399.264 757.997L 381.623 766.878L 381.623 790.882L 399.264 799.763z"/>
<path style="stroke:#ff0000; stroke-width:0.960058; fill:none" d="M 399.264 799.763L 417.025 790.882L 417.025 766.878L 399.264 757.997L 381.623 766.878L 381.623 790.882L 399.264 799.763z"/>
<path style="stroke:none; fill:#a9d18e" d="M 380.663 833.849L 398.304 824.967L 398.304 801.083L 380.663 792.202L 362.902 801.083L 362.902 824.967L 380.663 833.849z"/>
<path style="stroke:#ff0000; stroke-width:0.960058; fill:none" d="M 380.663 833.849L 398.304 824.967L 398.304 801.083L 380.663 792.202L 362.902 801.083L 362.902 824.967L 380.663 833.849z"/>
<path style="stroke:none; fill:#a9d18e" d="M 343.341 833.849L 361.102 824.967L 361.102 801.083L 343.341 792.202L 325.58 801.083L 325.58 824.967L 343.341 833.849z"/>
<path style="stroke:#ff0000; stroke-width:0.960058; fill:none" d="M 343.341 833.849L 361.102 824.967L 361.102 801.083L 343.341 792.202L 325.58 801.083L 325.58 824.967L 343.341 833.849z"/>
<path style="stroke:none; fill:#a9d18e" d="M 343.341 765.438L 361.102 756.557L 361.102 732.553L 343.341 723.671L 325.58 732.553L 325.58 756.557L 343.341 765.438z"/>
<path style="stroke:#ff0000; stroke-width:0.960058; fill:none" d="M 343.341 765.438L 361.102 756.557L 361.102 732.553L 343.341 723.671L 325.58 732.553L 325.58 756.557L 343.341 765.438z"/>
<path style="stroke:none; fill:#a9d18e" d="M 287.057 731.353L 304.699 722.471L 304.699 698.467L 287.057 689.586L 269.296 698.467L 269.296 722.471L 287.057 731.353z"/>
<path style="stroke:#ff0000; stroke-width:0.960058; fill:none" d="M 287.057 731.353L 304.699 722.471L 304.699 698.467L 287.057 689.586L 269.296 698.467L 269.296 722.471L 287.057 731.353z"/>
<path style="stroke:none; fill:#a9d18e" d="M 305.899 765.438L 323.54 756.677L 323.54 732.553L 305.899 723.671L 288.138 732.553L 288.138 756.677L 305.899 765.438z"/>
<path style="stroke:#ff0000; stroke-width:0.960058; fill:none" d="M 305.899 765.438L 323.54 756.677L 323.54 732.553L 305.899 723.671L 288.138 732.553L 288.138 756.677L 305.899 765.438z"/>
<path style="stroke:none; fill:#a9d18e" d="M 324.5 799.763L 342.141 790.882L 342.141 766.878L 324.5 757.997L 306.739 766.878L 306.739 790.882L 324.5 799.763z"/>
<path style="stroke:#ff0000; stroke-width:0.960058; fill:none" d="M 324.5 799.763L 342.141 790.882L 342.141 766.878L 324.5 757.997L 306.739 766.878L 306.739 790.882L 324.5 799.763z"/>
<path style="stroke:none; fill:#a9d18e" d="M 268.456 765.438L 286.217 756.677L 286.217 732.553L 268.456 723.671L 250.815 732.553L 250.815 756.677L 268.456 765.438z"/>
<path style="stroke:#ff0000; stroke-width:0.960058; fill:none" d="M 268.456 765.438L 286.217 756.677L 286.217 732.553L 268.456 723.671L 250.815 732.553L 250.815 756.677L 268.456 765.438z"/>
<path style="stroke:none; fill:#a9d18e" d="M 249.615 731.353L 267.256 722.471L 267.256 698.467L 249.615 689.586L 231.974 698.467L 231.974 722.471L 249.615 731.353z"/>
<path style="stroke:#ff0000; stroke-width:0.960058; fill:none" d="M 249.615 731.353L 267.256 722.471L 267.256 698.467L 249.615 689.586L 231.974 698.467L 231.974 722.471L 249.615 731.353z"/>
<path style="stroke:none; fill:#7d7d7d" d="M 231.494 696.427L 249.135 687.666L 249.135 663.662L 231.494 654.781L 213.853 663.662L 213.853 687.666L 231.494 696.427z"/>
<path style="stroke:#ff0000; stroke-width:0.960058; fill:none" d="M 231.494 696.427L 249.135 687.666L 249.135 663.662L 231.494 654.781L 213.853 663.662L 213.853 687.666L 231.494 696.427z"/>
<path style="stroke:none; fill:#a9d18e" d="M 380.663 765.558L 398.304 756.797L 398.304 732.793L 380.663 723.911L 362.902 732.793L 362.902 756.797L 380.663 765.558z"/>
<path style="stroke:#ff0000; stroke-width:0.960058; fill:none" d="M 380.663 765.558L 398.304 756.797L 398.304 732.793L 380.663 723.911L 362.902 732.793L 362.902 756.797L 380.663 765.558z"/>
<path style="stroke:none; fill:#a9d18e" d="M 361.822 731.353L 379.583 722.471L 379.583 698.467L 361.822 689.586L 344.061 698.467L 344.061 722.471L 361.822 731.353z"/>
<path style="stroke:#ff0000; stroke-width:0.960058; fill:none" d="M 361.822 731.353L 379.583 722.471L 379.583 698.467L 361.822 689.586L 344.061 698.467L 344.061 722.471L 361.822 731.353z"/>
<path style="stroke:none; fill:#a9d18e" d="M 324.5 731.353L 342.141 722.471L 342.141 698.467L 324.5 689.586L 306.739 698.467L 306.739 722.471L 324.5 731.353z"/>
<path style="stroke:#ff0000; stroke-width:0.960058; fill:none" d="M 324.5 731.353L 342.141 722.471L 342.141 698.467L 324.5 689.586L 306.739 698.467L 306.739 722.471L 324.5 731.353z"/>
<path style="stroke:none; fill:#a9d18e" d="M 305.899 697.027L 323.54 688.266L 323.54 664.142L 305.899 655.381L 288.138 664.142L 288.138 688.266L 305.899 697.027z"/>
<path style="stroke:#ff0000; stroke-width:0.960058; fill:none" d="M 305.899 697.027L 323.54 688.266L 323.54 664.142L 305.899 655.381L 288.138 664.142L 288.138 688.266L 305.899 697.027z"/>
<path style="stroke:none; fill:#a9d18e" d="M 231.494 833.849L 249.135 824.967L 249.135 801.083L 231.494 792.202L 213.853 801.083L 213.853 824.967L 231.494 833.849z"/>
<path style="stroke:#ff0000; stroke-width:0.960058; fill:none" d="M 231.494 833.849L 249.135 824.967L 249.135 801.083L 231.494 792.202L 213.853 801.083L 213.853 824.967L 231.494 833.849z"/>
<path style="stroke:none; fill:#7d7d7d" d="M 380.663 697.027L 398.304 688.266L 398.304 664.142L 380.663 655.381L 362.902 664.142L 362.902 688.266L 380.663 697.027z"/>
<path style="stroke:#ff0000; stroke-width:0.960058; fill:none" d="M 380.663 697.027L 398.304 688.266L 398.304 664.142L 380.663 655.381L 362.902 664.142L 362.902 688.266L 380.663 697.027z"/>
<path style="stroke:none; fill:#a9d18e" d="M 343.341 697.027L 361.102 688.266L 361.102 664.262L 343.341 655.381L 325.58 664.262L 325.58 688.266L 343.341 697.027z"/>
<path style="stroke:#ff0000; stroke-width:0.960058; fill:none" d="M 343.341 697.027L 361.102 688.266L 361.102 664.262L 343.341 655.381L 325.58 664.262L 325.58 688.266L 343.341 697.027z"/>
<path style="stroke:none; fill:#a9d18e" d="M 324.5 662.702L 342.141 653.82L 342.141 629.937L 324.5 621.055L 306.739 629.937L 306.739 653.82L 324.5 662.702z"/>
<path style="stroke:#ff0000; stroke-width:0.960058; fill:none" d="M 324.5 662.702L 342.141 653.82L 342.141 629.937L 324.5 621.055L 306.739 629.937L 306.739 653.82L 324.5 662.702z"/>
<path style="stroke:none; fill:#a9d18e" d="M 399.264 662.702L 417.025 653.82L 417.025 629.937L 399.264 621.055L 381.623 629.937L 381.623 653.82L 399.264 662.702z"/>
<path style="stroke:#ff0000; stroke-width:0.960058; fill:none" d="M 399.264 662.702L 417.025 653.82L 417.025 629.937L 399.264 621.055L 381.623 629.937L 381.623 653.82L 399.264 662.702z"/>
<path style="stroke:none; fill:#a9d18e" d="M 417.985 697.027L 435.746 688.266L 435.746 664.142L 417.985 655.381L 400.344 664.142L 400.344 688.266L 417.985 697.027z"/>
<path style="stroke:#ff0000; stroke-width:0.960058; fill:none" d="M 417.985 697.027L 435.746 688.266L 435.746 664.142L 417.985 655.381L 400.344 664.142L 400.344 688.266L 417.985 697.027z"/>
<path style="stroke:none; fill:#a9d18e" d="M 543.633 582.289L 561.394 573.528L 561.394 549.524L 543.633 540.643L 525.992 549.524L 525.992 573.528L 543.633 582.289z"/>
<path style="stroke:#ff0000; stroke-width:0.960058; fill:none" d="M 543.633 582.289L 561.394 573.528L 561.394 549.524L 543.633 540.643L 525.992 549.524L 525.992 573.528L 543.633 582.289z"/>
<path style="stroke:none; fill:#a9d18e" d="M 91.2055 783.921L 108.967 775.159L 108.967 751.156L 91.2055 742.394L 73.5645 751.156L 73.5645 775.159L 91.2055 783.921z"/>
<path style="stroke:#ff0000; stroke-width:0.960058; fill:none" d="M 91.2055 783.921L 108.967 775.159L 108.967 751.156L 91.2055 742.394L 73.5645 751.156L 73.5645 775.159L 91.2055 783.921z"/>
<path style="stroke:none; fill:#a9d18e" d="M 151.929 587.33L 169.69 578.449L 169.69 554.565L 151.929 545.684L 134.288 554.565L 134.288 578.449L 151.929 587.33z"/>
<path style="stroke:#ff0000; stroke-width:0.960058; fill:none" d="M 151.929 587.33L 169.69 578.449L 169.69 554.565L 151.929 545.684L 134.288 554.565L 134.288 578.449L 151.929 587.33z"/>
<path style="stroke:none; fill:#a9d18e" d="M 436.467 662.702L 454.228 653.82L 454.228 629.937L 436.467 621.055L 418.825 629.937L 418.825 653.82L 436.467 662.702z"/>
<path style="stroke:#ff0000; stroke-width:0.960058; fill:none" d="M 436.467 662.702L 454.228 653.82L 454.228 629.937L 436.467 621.055L 418.825 629.937L 418.825 653.82L 436.467 662.702z"/>
<path style="stroke:none; fill:#a9d18e" d="M 542.793 742.634L 560.554 733.753L 560.554 709.749L 542.793 700.868L 525.152 709.749L 525.152 733.753L 542.793 742.634z"/>
<path style="stroke:#ff0000; stroke-width:0.960058; fill:none" d="M 542.793 742.634L 560.554 733.753L 560.554 709.749L 542.793 700.868L 525.152 709.749L 525.152 733.753L 542.793 742.634z"/>
<path style="stroke:none; fill:#f4af83" d="M 505.351 742.634L 523.112 733.753L 523.112 709.749L 505.351 700.868L 487.71 709.749L 487.71 733.753L 505.351 742.634z"/>
<path style="stroke:#ff0000; stroke-width:0.960058; fill:none" d="M 505.351 742.634L 523.112 733.753L 523.112 709.749L 505.351 700.868L 487.71 709.749L 487.71 733.753L 505.351 742.634z"/>
<path style="stroke:none; fill:#a9d18e" d="M 91.2055 716.11L 108.967 707.229L 108.967 683.345L 91.2055 674.464L 73.5645 683.345L 73.5645 707.229L 91.2055 716.11z"/>
<path style="stroke:#ff0000; stroke-width:0.960058; fill:none" d="M 91.2055 716.11L 108.967 707.229L 108.967 683.345L 91.2055 674.464L 73.5645 683.345L 73.5645 707.229L 91.2055 716.11z"/>
<path style="stroke:none; fill:#a9d18e" d="M 581.075 582.289L 598.716 573.528L 598.716 549.524L 581.075 540.643L 563.314 549.524L 563.314 573.528L 581.075 582.289z"/>
<path style="stroke:#ff0000; stroke-width:0.960058; fill:none" d="M 581.075 582.289L 598.716 573.528L 598.716 549.524L 581.075 540.643L 563.314 549.524L 563.314 573.528L 581.075 582.289z"/>
<path style="stroke:none; fill:#a9d18e" d="M 72.6044 750.195L 90.2455 741.314L 90.2455 717.31L 72.6044 708.429L 54.8433 717.31L 54.8433 741.314L 72.6044 750.195z"/>
<path style="stroke:#ff0000; stroke-width:0.960058; fill:none" d="M 72.6044 750.195L 90.2455 741.314L 90.2455 717.31L 72.6044 708.429L 54.8433 717.31L 54.8433 741.314L 72.6044 750.195z"/>
<path style="stroke:none; fill:#a9d18e" d="M 417.985 765.438L 435.746 756.677L 435.746 732.553L 417.985 723.671L 400.344 732.553L 400.344 756.677L 417.985 765.438z"/>
<path style="stroke:#ff0000; stroke-width:0.960058; fill:none" d="M 417.985 765.438L 435.746 756.677L 435.746 732.553L 417.985 723.671L 400.344 732.553L 400.344 756.677L 417.985 765.438z"/>
<path style="stroke:none; fill:#a9d18e" d="M 212.533 731.353L 230.294 722.471L 230.294 698.467L 212.533 689.586L 194.772 698.467L 194.772 722.471L 212.533 731.353z"/>
<path style="stroke:#ff0000; stroke-width:0.960058; fill:none" d="M 212.533 731.353L 230.294 722.471L 230.294 698.467L 212.533 689.586L 194.772 698.467L 194.772 722.471L 212.533 731.353z"/>
<path style="stroke:#ff0000; stroke-width:0.960058; fill:none" d="M 0.960058 840.93L 656.92 840.93L 656.92 457.35L 0.960058 457.35L 0.960058 840.93z"/>
</g>
</svg>